<svg xmlns="http://www.w3.org/2000/svg" width="117" height="40" viewBox="0 0 117 40" fill="none">
<g clip-path="url(#clip0_4111_1192)">
<path d="M36.8333 40H3.16667C1.5 40 0 38.6667 0 36.8333V3.16667C0 1.5 1.33333 0 3.16667 0H36.8333C38.5 0 40 1.33333 40 3.16667V36.8333C40 38.6667 38.6667 40 36.8333 40Z" fill="#F16522"/>
<path d="M25.668 37.8333C31.168 31.5 34.3346 24 35.8346 16C36.0013 15 35.668 13.8333 35.5013 12.8333C35.3346 12.8333 35.168 12.8333 35.0013 12.8333C34.668 13.3333 34.3346 13.6666 34.0013 14.1666C33.8346 14.3333 33.8346 14.5 33.8346 14.8333C32.5013 19.5 30.5013 23.5 27.3346 27.3333C25.168 29.8333 23.8346 33 22.5013 36.1666C21.5013 38.3333 21.3346 38.5 18.668 38.1666C19.5013 36.5 20.168 34.6666 21.0013 33.1666C23.5013 29.3333 26.168 25.5 28.5013 21.6666C29.668 19.8333 30.3346 17.8333 31.5013 16.1666C32.3346 14.6666 33.5013 13.5 34.3346 12C35.168 10.6666 35.668 9.16666 36.168 7.5C36.668 6.16666 36.8346 4.83333 37.168 3.5C37.3346 3.5 37.5013 3.5 37.668 3.66666C37.3346 5.16666 37.0013 6.66666 36.8346 8.16666C36.668 9.83333 36.5013 11.5 36.3346 13.1666C36.3346 14 36.0013 15 37.3346 15.5C37.668 15.5 37.8346 16.8333 37.668 17.3333C36.668 20.8333 35.8346 24.5 34.668 27.8333C33.8346 30 32.5013 31.8333 31.3346 33.6666C31.0013 34.3333 30.5013 35 30.168 35.6666C28.8346 38.3333 28.8346 38.5 25.668 37.8333Z" fill="black"/>
<path d="M23.6658 2.16536C24.3325 3.66536 23.4992 4.4987 22.9992 5.33203C20.9992 8.16536 18.6658 10.9987 16.9992 13.9987C15.4992 16.6654 14.1658 19.6654 13.1658 22.6654C12.1658 25.6654 10.8325 28.332 8.99918 30.6654C7.49918 32.6654 6.16585 34.6654 4.66585 36.6654C4.33251 37.1654 3.99918 37.6654 3.49918 37.9987C3.33251 37.9987 3.16585 37.832 2.99918 37.832C2.99918 37.332 2.83251 36.6654 3.16585 36.1654C3.83251 34.332 4.66585 32.332 5.49918 30.4987C6.99918 27.832 7.49918 24.9987 7.16585 22.1654C6.66585 18.1654 7.16585 14.1654 7.99918 10.332C8.33251 9.16536 8.33251 7.83203 8.49918 6.33203C5.66585 7.33203 4.49918 9.9987 2.33251 11.832C1.99918 10.1654 1.83251 8.9987 3.16585 7.9987C5.16585 6.33203 6.83251 4.4987 8.83251 2.83203C9.33251 2.33203 10.1658 2.33203 11.1658 1.83203C10.8325 3.16536 10.6658 3.83203 10.4992 4.66537C9.83251 7.9987 9.16585 11.1654 8.66585 14.4987C8.49918 15.9987 8.49918 17.6654 8.66585 19.1654C8.83251 21.332 8.99918 23.6654 9.33251 25.9987C10.8325 25.832 11.4992 24.832 11.9992 23.4987C13.1658 20.4987 14.3325 17.4987 15.6658 14.4987C17.3325 10.6654 18.9992 6.9987 22.1658 4.16536C22.6658 3.83203 22.9992 2.9987 23.6658 2.16536Z" fill="black"/>
<path d="M7.33594 37.832C7.83594 36.9987 8.00261 36.1654 8.50261 35.4987C10.5026 32.6654 12.6693 29.832 14.3359 26.832C16.8359 21.9987 20.3359 17.9987 23.5026 13.6654C24.0026 13.1654 24.3359 12.332 24.5026 11.6654C25.0026 9.16537 26.1693 7.33203 27.8359 5.4987C28.6693 4.66537 29.5026 3.66536 30.6693 2.83203C30.1693 3.66536 29.8359 4.4987 29.3359 5.16536C27.3359 6.9987 26.3359 9.16537 25.6693 11.832C25.0026 13.9987 23.8359 15.832 22.8359 17.832C21.8359 19.9987 20.8359 22.1654 19.8359 24.1654C17.5026 28.9987 14.8359 33.332 10.6693 36.9987C9.66927 37.6654 8.83594 38.332 7.33594 37.832Z" fill="black"/>
<path d="M17.168 33.8339C18.5013 31.8339 20.3346 30.0005 21.168 27.6672C22.168 24.3338 24.0013 21.3338 24.668 18.0005C25.668 13.1672 28.168 9.83388 31.0013 6.33388C31.8346 5.33388 32.3346 4.16721 33.0013 3.16721C33.5013 2.33388 34.168 2.00055 34.8346 2.50055C35.0013 2.66721 35.0013 3.66721 34.668 4.16721C33.3346 6.16721 31.8346 8.00055 30.5013 10.1672C29.3346 12.0005 28.3346 14.0005 27.3346 16.0005C26.5013 17.6672 25.5013 19.3338 24.668 21.1672C23.668 23.1672 22.668 25.1672 22.168 27.1672C21.5013 30.0005 19.5013 32.1673 17.168 33.8339Z" fill="black"/>
<path d="M16.9987 2.33294C15.1654 4.66627 13.9987 6.9996 13.4987 9.83293C12.9987 12.8329 11.6654 15.6662 10.832 18.6662C10.6654 18.6662 10.4987 18.6662 10.332 18.4996C10.4987 17.6662 10.6654 16.6662 10.832 15.8329C11.6654 12.1662 12.4987 8.4996 13.332 4.9996C14.1654 2.4996 14.6654 2.16627 16.9987 2.33294Z" fill="black"/>
<path d="M37.6693 27.832C38.5026 33.6654 37.0026 37.9987 33.8359 37.9987C35.1693 34.4987 36.5026 31.1654 37.6693 27.832Z" fill="black"/>
<path d="M5.50085 11.3308C5.33418 11.8308 5.00085 12.3308 4.66752 12.6641C3.00085 14.6641 2.66751 16.8308 2.83418 19.3308C2.83418 21.1641 2.66751 22.9974 2.66751 24.8308C2.66751 25.1641 2.50085 25.3308 2.16752 25.6641C2.33418 20.6641 0.834182 15.3308 5.16752 11.1641C5.33418 11.3308 5.50085 11.3308 5.50085 11.3308Z" fill="black"/>
<path d="M26.6667 2.4987C25.1667 6.16536 24.3333 10.1654 21.5 12.9987C23 9.4987 24.6667 5.83203 26.3333 2.33203C26.3333 2.33203 26.5 2.33203 26.6667 2.4987Z" fill="black"/>
<path d="M2.33186 5.16536C1.99852 2.9987 2.49852 2.33203 4.16519 2.33203C3.49852 3.16536 2.99852 3.9987 2.33186 5.16536Z" fill="black"/>
<path d="M49.5 14.5969C48.3 14.5969 47.4 14.8969 46.8 15.4969C46.5 15.7969 46.2 16.0969 45.9 16.3969V11.2969H45V25.0969H45.9V23.5969C46.2 23.8969 46.5 24.1969 46.8 24.4969C47.4 25.0969 48.3 25.3969 49.5 25.3969C50.7 25.3969 51.9 24.7969 52.8 23.8969C53.7 22.9969 54 21.4969 54 19.9969C54 18.4969 53.7 17.2969 52.8 16.0969C51.9 15.1969 51 14.5969 49.5 14.5969ZM49.5 24.4969C48.3 24.4969 47.7 24.1969 46.8 23.2969C46.2 22.3969 45.9 21.4969 45.9 20.2969C45.9 18.7969 46.2 17.8969 46.8 16.9969C47.4 16.3969 48.3 15.7969 49.5 15.7969C50.7 15.7969 51.3 16.0969 51.9 16.9969C52.5 17.8969 52.8 18.7969 52.8 19.9969C52.8 21.1969 52.5 22.3969 51.9 22.9969C51.3 23.8969 50.7 24.4969 49.5 24.4969Z" fill="#212121"/>
<path d="M62.4016 24.1984C62.4016 23.8984 62.4016 23.8984 62.4016 24.1984V17.8984C62.4016 16.6984 62.1016 16.0984 61.5016 15.4984C60.9016 14.8984 60.0016 14.8984 59.1016 14.8984C57.9016 14.8984 57.0016 15.1984 56.1016 15.7984C55.5016 16.3984 54.9016 17.2984 54.9016 18.1984V18.4984H55.8016V18.1984C55.8016 17.2984 56.1016 16.6984 56.7016 16.3984C57.3016 16.0984 57.9016 15.7984 58.8016 15.7984C59.7016 15.7984 60.6016 16.0984 60.9016 16.3984C61.2016 16.6984 61.5016 17.2984 61.5016 18.1984C61.5016 18.7984 61.2016 19.0984 60.9016 19.0984C60.3016 19.3984 59.4016 19.3984 58.2016 19.3984C57.3016 19.3984 56.4016 19.6984 55.8016 19.9984C55.2016 20.5984 54.6016 21.1984 54.6016 22.3984C54.6016 23.2984 54.9016 24.1984 55.5016 24.4984C56.1016 25.0984 57.0016 25.0984 57.9016 25.0984C58.8016 25.0984 59.7016 24.7984 60.6016 24.1984C60.9016 23.8984 61.2016 23.5984 61.5016 23.2984C61.5016 23.5984 61.5016 23.8984 61.8016 24.1984C62.1016 24.4984 62.4016 24.4984 63.0016 24.4984H63.6016V23.5984H62.7016C62.7016 24.1984 62.4016 24.1984 62.4016 24.1984ZM56.1016 20.8984C56.7016 20.5984 57.3016 20.2984 57.9016 20.2984C59.1016 20.2984 60.0016 20.2984 60.6016 19.9984C60.9016 19.9984 61.2016 19.9984 61.2016 19.6984V20.8984C61.2016 21.7984 60.9016 22.6984 60.3016 23.2984C59.7016 23.8984 58.8016 24.1984 57.6016 24.1984C56.7016 24.1984 56.1016 23.8984 55.8016 23.5984C55.5016 23.2984 55.2016 22.6984 55.2016 22.3984C55.5016 21.4984 55.5016 21.1984 56.1016 20.8984Z" fill="#212121"/>
<path d="M68.0992 14.6016C67.1992 14.6016 66.2992 14.9016 65.6992 15.5016C65.3992 15.8016 65.0992 15.8016 65.0992 16.1016V14.9016H64.1992V25.1016H65.0992V19.4016C65.0992 18.2016 65.3992 17.6016 65.9992 16.7016C66.5992 16.1016 67.1992 15.8016 68.3992 15.8016C69.2992 15.8016 69.8992 16.1016 70.1992 16.4016C70.7992 17.0016 71.0992 17.6016 71.0992 18.5016V25.1016H71.9992V18.5016C71.9992 17.3016 71.6992 16.4016 71.0992 15.8016C69.8992 15.2016 68.9992 14.6016 68.0992 14.6016Z" fill="#212121"/>
<path d="M80.3977 16.4016C80.0977 16.1016 79.7977 15.8016 79.4977 15.5016C78.8977 14.9016 77.9977 14.6016 77.0977 14.6016C75.5977 14.6016 74.6977 15.2016 73.7977 16.1016C72.8977 17.0016 72.5977 18.2016 72.5977 19.7016C72.5977 21.2016 72.8977 22.1016 73.7977 23.3016C74.6977 24.2016 75.5977 24.8016 77.0977 24.8016C77.9977 24.8016 78.8977 24.5016 79.7977 23.9016C80.0977 23.6016 80.3977 23.3016 80.6977 23.0016V24.5016C80.6977 25.7016 80.3977 26.3016 79.7977 26.9016C79.1977 27.5016 78.2977 27.8016 77.3977 27.8016C76.4977 27.8016 75.8977 27.5016 75.2977 27.2016C74.6977 26.9016 74.3977 26.3016 74.3977 25.4016V25.1016H73.4977V25.4016C73.4977 26.6016 73.7977 27.5016 74.6977 27.8016C75.2977 28.4016 76.4977 28.7016 77.3977 28.7016C78.8977 28.7016 79.7977 28.4016 80.6977 27.8016C81.5977 27.2016 81.8977 26.0016 81.8977 24.8016V15.2016H80.9977L80.3977 16.4016ZM74.3977 22.7016C73.7977 22.1016 73.4977 20.9016 73.4977 20.0016C73.4977 18.8016 73.7977 17.9016 74.3977 17.0016C74.9977 16.4016 75.8977 15.8016 76.7977 15.8016C77.6977 15.8016 79.1977 16.1016 79.7977 17.0016C80.3977 17.9016 80.6977 18.8016 80.6977 19.7016C80.6977 20.9016 80.3977 21.8016 79.7977 22.4016C79.1977 23.0016 77.6977 23.6016 76.7977 23.6016C75.8977 23.6016 74.9977 23.3016 74.3977 22.7016Z" fill="#212121"/>
<path d="M83.7008 11.2969H82.8008V25.0969H83.7008V11.2969Z" fill="#212121"/>
<path d="M92.6985 24.1984C92.6985 23.8984 92.6985 23.8984 92.6985 24.1984V17.8984C92.6985 16.6984 92.3985 16.0984 91.7985 15.4984C91.1985 14.8984 90.2984 14.8984 89.3984 14.8984C88.1984 14.8984 87.2984 15.1984 86.3984 15.7984C85.7984 16.3984 85.1984 17.2984 85.1984 18.1984V18.4984H86.0984V18.1984C86.0984 17.2984 86.3984 16.6984 86.9984 16.3984C87.5984 16.0984 88.1984 15.7984 89.0985 15.7984C89.9985 15.7984 90.8984 16.0984 91.1985 16.3984C91.4985 16.6984 91.7985 17.2984 91.7985 18.1984C91.7985 18.7984 91.4985 19.0984 91.1985 19.0984C90.5984 19.3984 89.6984 19.3984 88.4984 19.3984C87.5984 19.3984 86.6984 19.6984 86.0984 19.9984C85.4984 20.5984 84.8984 21.1984 84.8984 22.3984C84.8984 23.2984 85.1984 24.1984 85.7984 24.4984C86.3984 25.0984 87.2984 25.0984 88.1984 25.0984C89.0984 25.0984 89.9984 24.7984 90.8984 24.1984C91.1984 23.8984 91.4985 23.5984 91.7985 23.2984C91.7985 23.5984 91.7985 23.8984 92.0985 24.1984C92.3985 24.4984 92.6985 24.4984 93.2985 24.4984H93.8985V23.5984H92.9985C92.9985 24.1984 92.6985 24.1984 92.6985 24.1984ZM86.0984 20.8984C86.6984 20.5984 87.2984 20.2984 87.8984 20.2984C89.0984 20.2984 89.9985 20.2984 90.5985 19.9984C90.8985 19.9984 91.1985 19.9984 91.1985 19.6984V20.8984C91.1985 21.7984 90.8985 22.6984 90.2985 23.2984C89.6985 23.8984 88.7984 24.1984 87.5984 24.1984C86.6984 24.1984 86.0984 23.8984 85.7984 23.5984C85.78 23.58 85.7618 23.5609 85.7439 23.5413C85.1637 22.9067 85.2938 21.8802 85.8227 21.2023C85.9108 21.0893 86.0013 20.9956 86.0984 20.8984Z" fill="#212121"/>
<path d="M95.0992 11.2969H94.1992V25.0969H95.0992V11.2969Z" fill="#212121"/>
<path d="M97.5016 11.2969H96.6016V13.6969H97.5016V11.2969Z" fill="#212121"/>
<path d="M97.5016 14.8984H96.6016V25.0984H97.5016V14.8984Z" fill="#212121"/>
<path d="M103.2 14.6016C102.3 14.6016 101.4 14.9016 100.8 15.5016C100.5 15.8016 100.2 15.8016 100.2 16.1016V14.9016H99V25.1016H99.9V19.4016C99.9 18.2016 100.2 17.6016 100.8 16.7016C101.4 16.1016 102 15.8016 103.2 15.8016C104.1 15.8016 104.7 16.1016 105 16.4016C105.6 17.0016 105.9 17.6016 105.9 18.5016V25.1016H106.8V18.5016C106.8 17.3016 106.5 16.4016 105.9 15.8016C105 15.2016 104.1 14.6016 103.2 14.6016Z" fill="#212121"/>
<path d="M112.201 19.0969L117.001 14.8969H115.201L109.201 19.9969V11.2969H108.301V25.0969H109.201V21.4969L111.301 19.6969L115.801 25.0969H117.001L112.201 19.0969Z" fill="#212121"/>
</g>
<defs>
<clipPath id="clip0_4111_1192">
<rect width="117" height="40" fill="white"/>
</clipPath>
</defs>
</svg>